<svg id="visual" viewBox="0 0 900 600" width="900" height="600" xmlns="http://www.w3.org/2000/svg" xmlns:xlink="http://www.w3.org/1999/xlink" version="1.1"><rect x="0" y="0" width="900" height="600" fill="#4446a5"></rect><defs><linearGradient id="grad1_0" x1="33.3%" y1="0%" x2="100%" y2="100%"><stop offset="20%" stop-color="#8158a8" stop-opacity="1"></stop><stop offset="80%" stop-color="#8158a8" stop-opacity="1"></stop></linearGradient></defs><defs><linearGradient id="grad1_1" x1="33.3%" y1="0%" x2="100%" y2="100%"><stop offset="20%" stop-color="#8158a8" stop-opacity="1"></stop><stop offset="80%" stop-color="#7051a7" stop-opacity="1"></stop></linearGradient></defs><defs><linearGradient id="grad1_2" x1="33.3%" y1="0%" x2="100%" y2="100%"><stop offset="20%" stop-color="#5c4ba6" stop-opacity="1"></stop><stop offset="80%" stop-color="#7051a7" stop-opacity="1"></stop></linearGradient></defs><defs><linearGradient id="grad1_3" x1="33.3%" y1="0%" x2="100%" y2="100%"><stop offset="20%" stop-color="#5c4ba6" stop-opacity="1"></stop><stop offset="80%" stop-color="#4446a5" stop-opacity="1"></stop></linearGradient></defs><defs><linearGradient id="grad2_0" x1="0%" y1="0%" x2="66.7%" y2="100%"><stop offset="20%" stop-color="#8158a8" stop-opacity="1"></stop><stop offset="80%" stop-color="#8158a8" stop-opacity="1"></stop></linearGradient></defs><defs><linearGradient id="grad2_1" x1="0%" y1="0%" x2="66.7%" y2="100%"><stop offset="20%" stop-color="#7051a7" stop-opacity="1"></stop><stop offset="80%" stop-color="#8158a8" stop-opacity="1"></stop></linearGradient></defs><defs><linearGradient id="grad2_2" x1="0%" y1="0%" x2="66.7%" y2="100%"><stop offset="20%" stop-color="#7051a7" stop-opacity="1"></stop><stop offset="80%" stop-color="#5c4ba6" stop-opacity="1"></stop></linearGradient></defs><defs><linearGradient id="grad2_3" x1="0%" y1="0%" x2="66.7%" y2="100%"><stop offset="20%" stop-color="#4446a5" stop-opacity="1"></stop><stop offset="80%" stop-color="#5c4ba6" stop-opacity="1"></stop></linearGradient></defs><g transform="translate(900, 0)"><path d="M0 486.7C-59.7 467.6 -119.4 448.4 -176 425C-232.7 401.6 -286.3 373.9 -334.5 334.5C-382.6 295.1 -425.2 244 -449.7 186.3C-474.2 128.6 -480.5 64.3 -486.7 0L0 0Z" fill="#5149a6"></path><path d="M0 365.1C-44.8 350.7 -89.5 336.3 -132 318.7C-174.5 301.2 -214.7 280.4 -250.8 250.8C-286.9 221.3 -318.9 183 -337.3 139.7C-355.6 96.4 -360.3 48.2 -365.1 0L0 0Z" fill="#674ea7"></path><path d="M0 243.4C-29.8 233.8 -59.7 224.2 -88 212.5C-116.3 200.8 -143.2 186.9 -167.2 167.2C-191.3 147.5 -212.6 122 -224.8 93.1C-237.1 64.3 -240.2 32.1 -243.4 0L0 0Z" fill="#7955a8"></path><path d="M0 121.7C-14.9 116.9 -29.8 112.1 -44 106.2C-58.2 100.4 -71.6 93.5 -83.6 83.6C-95.6 73.8 -106.3 61 -112.4 46.6C-118.5 32.1 -120.1 16.1 -121.7 0L0 0Z" fill="#8158a8"></path></g><g transform="translate(0, 600)"><path d="M0 -486.7C57.3 -469.9 114.6 -453 179.9 -434.2C245.1 -415.4 318.4 -394.8 344.2 -344.2C369.9 -293.6 348.2 -213.1 364 -150.8C379.8 -88.4 433.3 -44.2 486.7 0L0 0Z" fill="#5149a6"></path><path d="M0 -365.1C43 -352.4 85.9 -339.8 134.9 -325.7C183.9 -311.6 238.8 -296.1 258.1 -258.1C277.5 -220.2 261.1 -159.8 273 -113.1C284.9 -66.3 325 -33.2 365.1 0L0 0Z" fill="#674ea7"></path><path d="M0 -243.4C28.6 -234.9 57.3 -226.5 89.9 -217.1C122.6 -207.7 159.2 -197.4 172.1 -172.1C185 -146.8 174.1 -106.6 182 -75.4C189.9 -44.2 216.6 -22.1 243.4 0L0 0Z" fill="#7955a8"></path><path d="M0 -121.7C14.3 -117.5 28.6 -113.3 45 -108.6C61.3 -103.9 79.6 -98.7 86 -86C92.5 -73.4 87 -53.3 91 -37.7C95 -22.1 108.3 -11.1 121.7 0L0 0Z" fill="#8158a8"></path></g></svg>